<svg width="100" height="50" viewBox="0 0 100 50" fill="none" xmlns="http://www.w3.org/2000/svg">
<path d="M18.2939 4.00433C21.8697 4.00433 24.6129 4.39601 26.4498 5.17936C28.3112 5.96271 29.5113 7.16223 30.0501 8.75341C30.6134 10.3446 30.7114 12.4009 30.344 14.9223C30.0991 16.6604 29.7072 18.1781 29.1194 19.5001C28.5561 20.822 27.7968 21.8746 26.8416 22.6824C25.8865 23.4903 24.6618 23.9799 23.1678 24.1267L23.0454 24.3715C24.7353 24.5184 26.0089 25.0814 26.8906 26.0606C27.7479 27.0154 28.2867 28.2883 28.4826 29.8795C28.6786 31.4462 28.6296 33.2822 28.3112 35.3874C27.9928 37.8599 27.356 39.8917 26.4008 41.4584C25.4456 43.0251 23.9271 44.1512 21.8452 44.8856C19.7879 45.62 16.8978 45.9872 13.175 45.9872C9.62365 45.9872 6.85604 45.5955 4.84768 44.8367C2.83932 44.0778 1.46776 42.8783 0.732993 41.2626C-0.00177233 39.6469 -0.173218 37.5906 0.169673 35.0447C0.439087 32.9639 0.879946 31.1524 1.49225 29.6102C2.10455 28.068 2.96178 26.844 4.06393 25.8893C5.16607 24.9346 6.61111 24.396 8.37455 24.2247L8.49701 23.9799C6.48865 23.7351 5.11709 22.7803 4.40682 21.1157C3.69655 19.4511 3.54959 17.2724 3.94147 14.5796C4.30885 12.1071 4.94564 10.0753 5.87635 8.50862C6.80705 6.96639 8.25209 5.79136 10.187 5.05696C12.1708 4.32257 14.8405 3.95537 18.2939 4.00433ZM15.5018 26.4523C13.7628 26.4523 12.3423 26.5502 11.2156 26.7461C10.089 26.9419 9.18279 27.3091 8.47252 27.8477C7.76225 28.3862 7.19892 29.1696 6.80705 30.1733C6.41518 31.2014 6.09678 32.5478 5.85186 34.1879C5.65592 35.9505 5.7049 37.3458 5.99881 38.325C6.29271 39.3042 7.05197 40.0141 8.25209 40.4548C9.4522 40.8954 11.2401 41.1157 13.6159 41.1157C15.8692 41.1157 17.6326 40.8954 18.9062 40.4303C20.1798 39.9897 21.135 39.2063 21.7473 38.1292C22.3596 37.0521 22.7759 35.6078 23.0209 33.7963C23.2168 32.254 23.2658 31.0056 23.1678 30.0508C23.0699 29.0961 22.7515 28.3373 22.2126 27.8232C21.6738 27.3091 20.8656 26.9664 19.7879 26.7706C18.7102 26.5502 17.2897 26.4523 15.5018 26.4523ZM17.9755 8.55758C15.7712 8.55758 14.0812 8.77789 12.8811 9.21853C11.681 9.65917 10.8483 10.3691 10.3339 11.3728C9.81959 12.3764 9.45221 13.7718 9.20728 15.5343C8.96236 17.2724 8.98685 18.6188 9.25627 19.549C9.52568 20.5037 10.236 21.1402 11.3626 21.4584C12.4892 21.8012 14.1302 21.9725 16.31 21.9725C17.9265 21.9725 19.2491 21.8746 20.3022 21.6788C21.3554 21.4829 22.1636 21.1157 22.7515 20.6261C23.3393 20.1365 23.8046 19.4021 24.1475 18.5209C24.4904 17.6396 24.7353 16.5135 24.8823 15.1182C25.1517 13.4535 25.1762 12.1561 24.9068 11.1769C24.6374 10.2222 23.9761 9.53677 22.9229 9.14509C21.8942 8.75341 20.2288 8.55758 17.9755 8.55758Z" fill="#39B54A"/>
<path d="M48.4929 4.59198C51.3585 4.59198 54.2241 4.59198 57.0407 4.61646C59.8573 4.64094 62.6984 4.71438 65.515 4.8123L65.27 5.86493H48.7868C47.3173 5.86493 46.0927 6.28109 45.064 7.1134C44.0353 7.94571 43.3985 9.1697 43.1781 10.7854L38.3287 45.3754H36.8591L41.7576 10.5651C42.027 8.70459 42.7617 7.26028 43.9864 6.18317C45.211 5.10606 46.6805 4.59198 48.4929 4.59198ZM40.9983 23.0987L60.4451 23.1477L60.2736 24.3227L40.8269 24.3717L40.9983 23.0987Z" fill="#1A1A1A"/>
<path d="M72.5688 4.59195L82.0963 24.2248L66.2498 45.3753H64.4619L80.4308 24.0289L70.9768 4.59195H72.5688V4.59195ZM84.6924 23.3925L84.4475 24.6899H81.3615L81.6064 23.3925H84.6924ZM100 4.59195L85.1088 24.1024L95.0526 45.3753H93.4606L83.4678 23.9065L98.3101 4.56747H100V4.59195Z" fill="#1A1A1A"/>
</svg>
